# Blender v2.91.0 OBJ File: 'tiles.blend'
# www.blender.org
mtllib road_cross_3.mtl
o road_cross_3_Cube.003
v 0.062000 -0.000000 0.030000
v 0.058000 -0.000000 0.030000
v 0.050000 -0.000000 0.018000
v 0.064000 -0.000000 0.018000
v 0.050000 -0.000000 0.022000
v 0.062000 0.001500 0.018000
v 0.056000 -0.000000 0.022000
v 0.050000 -0.000000 0.017000
v 0.062000 0.001500 0.017000
v 0.063000 -0.000000 0.030000
v 0.057000 -0.000000 0.030000
v 0.064000 -0.000000 0.017000
v 0.050000 -0.000000 0.023000
v 0.055395 -0.000000 0.023000
v 0.062000 0.001500 0.030000
v 0.058000 0.001500 0.030000
v 0.050000 0.001500 0.018000
v 0.062000 0.002000 0.018000
v 0.050000 0.001500 0.022000
v 0.062000 -0.000000 0.017000
v 0.056000 0.001500 0.022000
v 0.050000 0.001500 0.017000
v 0.056000 -0.000000 0.017000
v 0.063000 0.001500 0.030000
v 0.057000 0.001500 0.030000
v 0.050000 0.001500 0.023000
v 0.055395 0.001500 0.023000
v 0.064000 0.002000 0.018000
v 0.062000 -0.000000 0.018000
v 0.050000 0.002000 0.017000
v 0.050000 0.002000 0.018000
v 0.058000 0.002000 0.017000
v 0.058000 0.002000 0.030000
v 0.050000 0.002000 0.022000
v 0.056000 0.002000 0.022000
v 0.062000 0.002000 0.030000
v 0.058000 0.002000 0.018000
v 0.063000 0.002000 0.030000
v 0.056000 -0.000000 0.018000
v 0.057000 0.002000 0.030000
v 0.050000 0.002000 0.023000
v 0.055395 0.002000 0.023000
v 0.058000 -0.000000 0.024004
v 0.062000 -0.000000 0.024004
v 0.063000 -0.000000 0.024634
v 0.057000 -0.000000 0.024634
v 0.058000 0.001500 0.024004
v 0.062000 0.001500 0.024004
v 0.057000 0.001500 0.024634
v 0.058000 0.002000 0.024004
v 0.062000 0.002000 0.024004
v 0.057000 0.002000 0.024634
v 0.063000 0.002000 0.024640
v 0.063000 0.001499 0.024636
v 0.070000 -0.000000 0.018000
v 0.070000 -0.000000 0.017000
v 0.070000 0.001500 0.018000
v 0.070000 0.001500 0.017000
v 0.070000 0.002000 0.018000
v 0.070000 0.002000 0.017000
v 0.070000 -0.000000 0.022000
v 0.070000 0.001500 0.022000
v 0.070000 -0.000000 0.023000
v 0.070000 0.001500 0.023000
v 0.070000 0.002000 0.022000
v 0.070000 0.002000 0.023000
v 0.064000 -0.000000 0.022000
v 0.064000 0.001500 0.022000
v 0.064680 -0.000000 0.023000
v 0.064680 0.001500 0.023000
v 0.064000 0.002000 0.022000
v 0.064680 0.002000 0.023000
v 0.056000 0.001500 0.017000
v 0.064000 0.001500 0.017000
v 0.056000 0.001500 0.018000
v 0.058000 0.001500 0.018000
v 0.064000 0.001500 0.018000
v 0.058000 0.001500 0.017000
v 0.056000 0.002000 0.018000
v 0.058000 -0.000000 0.018000
v 0.058000 -0.000000 0.017000
v 0.056000 0.002000 0.017000
v 0.064000 0.002000 0.017000
v 0.062000 0.002000 0.017000
v 0.062000 0.001500 0.018000
v 0.062000 0.001500 0.030000
v 0.058000 0.001500 0.030000
v 0.050000 0.001500 0.018000
v 0.050000 0.001500 0.022000
v 0.056000 0.001500 0.022000
v 0.058000 0.001500 0.024004
v 0.062000 0.001500 0.024004
v 0.070000 0.001500 0.018000
v 0.070000 0.001500 0.022000
v 0.064000 0.001500 0.022000
v 0.056000 0.001500 0.018000
v 0.058000 0.001500 0.018000
v 0.064000 0.001500 0.018000
vt 0.063413 0.937500
vt 0.063413 0.937500
vt 0.063413 0.937500
vt 0.063413 0.937500
vt 0.063413 0.937500
vt 0.063413 0.937500
vt 0.063413 0.937500
vt 0.063413 0.937500
vt 0.063413 0.937500
vt 0.063413 0.937500
vt 0.063413 0.937500
vt 0.063413 0.937500
vt 0.063413 0.937500
vt 0.063413 0.937500
vt 0.063413 0.937500
vt 0.063413 0.937500
vt 0.063413 0.937500
vt 0.063413 0.937500
vt 0.063413 0.937500
vt 0.063413 0.937500
vt 0.063413 0.937500
vt 0.063413 0.937500
vt 0.063413 0.937500
vt 0.063413 0.937500
vt 0.063413 0.937500
vt 0.063413 0.937500
vt 0.063413 0.937500
vt 0.063413 0.937500
vt 0.063413 0.937500
vt 0.063413 0.937500
vt 0.063413 0.937500
vt 0.063413 0.937500
vt 0.063413 0.937500
vt 0.063413 0.937500
vt 0.063413 0.937500
vt 0.063413 0.937500
vt 0.063413 0.937500
vt 0.063413 0.937500
vt 0.063413 0.937500
vt 0.063413 0.937500
vt 0.063413 0.937500
vt 0.063413 0.937500
vt 0.063413 0.937500
vt 0.063413 0.937500
vt 0.063413 0.937500
vt 0.063413 0.937500
vt 0.063413 0.937500
vt 0.063413 0.937500
vt 0.000000 0.000000
vt 0.000000 0.000000
vt 0.000000 0.000000
vt 0.000000 0.000000
vt 0.000000 0.000000
vt 0.000000 0.000000
vt 0.063413 0.937500
vt 0.063413 0.937500
vt 0.063413 0.937500
vt 0.063413 0.937500
vt 0.063413 0.937500
vt 0.063413 0.937500
vt 0.063413 0.937500
vt 0.063413 0.937500
vt 0.063413 0.937500
vt 0.063413 0.937500
vt 0.063413 0.937500
vt 0.063413 0.937500
vt 0.000000 0.000000
vt 0.000000 0.000000
vt 0.000000 0.000000
vt 0.000000 0.000000
vt 0.000000 0.000000
vt 0.000000 0.000000
vt 0.063413 0.937500
vt 0.063413 0.937500
vt 0.063413 0.937500
vt 0.063413 0.937500
vt 0.063413 0.937500
vt 0.063413 0.937500
vt 0.063413 0.937500
vt 0.063413 0.937500
vt 0.063413 0.937500
vt 0.063413 0.937500
vt 0.063413 0.937500
vt 0.063413 0.937500
vt 0.063413 0.937500
vt 0.063413 0.937500
vt 0.300031 0.599985
vt 0.000077 0.599985
vt 0.000077 0.400016
vt 0.300031 0.400016
vt 0.599984 0.299807
vt 0.400015 0.299807
vt 0.400015 0.000077
vt 0.599985 0.000077
vt 0.699969 0.599985
vt 0.699969 0.400016
vt 0.999923 0.400016
vt 0.999923 0.599985
vt 0.400015 0.599985
vt 0.599984 0.599985
vn 0.0000 -1.0000 0.0000
vn 0.0000 0.0000 1.0000
vn -1.0000 0.0000 0.0000
vn 0.0000 0.0000 -1.0000
vn -0.7136 0.0000 0.7006
vn 0.0000 1.0000 0.0000
vn 0.7079 0.0000 -0.7063
vn 1.0000 0.0000 0.0000
vn 0.6976 -0.0004 0.7165
vn 0.6982 -0.0026 0.7159
vn -0.7079 0.0000 -0.7063
usemtl pavement
s off
f 39/1/1 7/2/1 5/3/1 3/4/1
f 44/5/1 1/6/1 2/7/1 43/8/1
f 3/4/1 8/9/1 23/10/1 39/1/1
f 44/5/1 45/11/1 10/12/1 1/6/1
f 7/2/1 14/13/1 13/14/1 5/3/1
f 7/2/1 43/8/1 46/15/1 14/13/1
f 25/16/2 16/17/2 33/18/2 40/19/2
f 48/20/3 15/21/3 36/22/3 51/23/3
f 22/24/3 17/25/3 31/26/3 30/27/3
f 21/28/4 19/29/4 34/30/4 35/31/4
f 49/32/3 25/16/3 40/19/3 52/33/3
f 27/34/5 49/32/5 52/33/5 42/35/5
f 46/15/3 11/36/3 25/16/3 49/32/3
f 14/13/5 46/15/5 49/32/5 27/34/5
f 5/3/3 13/14/3 26/37/3 19/29/3
f 1/6/2 10/12/2 24/38/2 15/21/2
f 23/10/4 8/9/4 22/24/4 73/39/4
f 11/36/2 2/7/2 16/17/2 25/16/2
f 8/9/3 3/4/3 17/25/3 22/24/3
f 13/14/2 14/13/2 27/34/2 26/37/2
f 31/26/6 79/40/6 82/41/6 30/27/6
f 51/23/6 36/22/6 38/42/6 53/43/6
f 35/31/6 34/30/6 41/44/6 42/35/6
f 35/31/6 42/35/6 52/33/6 50/45/6
f 47/46/7 21/28/7 35/31/7 50/45/7
f 73/39/4 22/24/4 30/27/4 82/41/4
f 26/37/2 27/34/2 42/35/2 41/44/2
f 19/29/3 26/37/3 41/44/3 34/30/3
f 17/25/2 75/47/2 79/40/2 31/26/2
f 15/21/2 24/38/2 38/42/2 36/22/2
f 24/38/8 54/48/8 53/43/8 38/42/8
f 16/17/8 47/46/8 50/45/8 33/18/8
f 33/18/6 50/45/6 52/33/6 40/19/6
f 10/12/8 45/11/8 54/48/8 24/38/8
f 2/7/1 11/36/1 46/15/1 43/8/1
f 44/5/1 67/49/1 69/50/1 45/11/1
f 69/50/9 70/51/9 54/48/9 45/11/9
f 70/51/10 72/52/10 53/43/10 54/48/10
f 51/23/11 71/53/11 68/54/11 48/20/11
f 12/55/4 74/56/4 58/57/4 56/58/4
f 4/59/1 12/55/1 56/58/1 55/60/1
f 28/61/2 77/62/2 57/63/2 59/64/2
f 83/65/6 28/61/6 59/64/6 60/66/6
f 74/56/4 83/65/4 60/66/4 58/57/4
f 59/64/8 57/63/8 58/57/8 60/66/8
f 55/60/8 56/58/8 58/57/8 57/63/8
f 62/67/4 68/54/4 71/53/4 65/68/4
f 53/43/6 72/52/6 71/53/6 51/23/6
f 63/69/1 69/50/1 67/49/1 61/70/1
f 64/71/2 70/51/2 69/50/2 63/69/2
f 66/72/2 72/52/2 70/51/2 64/71/2
f 65/68/6 71/53/6 72/52/6 66/72/6
f 66/72/8 64/71/8 62/67/8 65/68/8
f 62/67/2 57/63/2 64/71/2
f 61/70/8 62/67/8 64/71/8 63/69/8
f 23/10/4 73/39/4 78/73/4 81/74/4
f 79/40/2 75/47/2 76/75/2 37/76/2
f 73/39/4 82/41/4 32/77/4 78/73/4
f 82/41/6 79/40/6 37/76/6 32/77/6
f 39/1/1 23/10/1 81/74/1 80/78/1
f 83/65/4 74/56/4 9/79/4 84/80/4
f 74/56/4 12/55/4 20/81/4 9/79/4
f 28/61/6 83/65/6 84/80/6 18/82/6
f 77/62/2 28/61/2 18/82/2 6/83/2
f 12/55/1 4/59/1 29/84/1 20/81/1
f 9/79/4 78/73/4 32/77/4 84/80/4
f 20/81/4 81/74/4 78/73/4 9/79/4
f 20/81/1 29/84/1 80/78/1 81/74/1
f 84/80/6 32/77/6 37/76/6 18/82/6
f 6/83/2 18/82/2 37/76/2 76/75/2
f 80/78/1 43/8/1 7/2/1 39/1/1
f 43/8/1 80/78/1 29/84/1 44/5/1
f 44/5/1 29/84/1 4/59/1 67/49/1
f 55/60/1 61/85/1 67/49/1 4/59/1
usemtl asphalt_cross_3
f 3/4/3 5/3/3 19/29/3 17/25/3
f 2/7/2 1/6/2 15/21/2 16/17/2
f 55/60/8 57/63/8 62/86/8 61/85/8
f 96/87/6 88/88/6 89/89/6 90/90/6
f 92/91/6 91/92/6 87/93/6 86/94/6
f 98/95/6 95/96/6 94/97/6 93/98/6
f 90/90/6 91/92/6 97/99/6 96/87/6
f 95/96/6 98/95/6 85/100/6 92/91/6
f 91/92/6 92/91/6 85/100/6 97/99/6
