# Blender v2.91.0 OBJ File: 'tiles.blend'
# www.blender.org
mtllib road_cross_4.mtl
o road_cross_4_Cube.007
v 0.082000 -0.000000 0.030000
v 0.078000 -0.000000 0.030000
v 0.070000 -0.000000 0.018000
v 0.084000 -0.000000 0.018000
v 0.070000 -0.000000 0.022000
v 0.082000 0.001500 0.015911
v 0.076000 -0.000000 0.022000
v 0.070000 -0.000000 0.017000
v 0.083012 0.001500 0.015244
v 0.083000 -0.000000 0.030000
v 0.077000 -0.000000 0.030000
v 0.084684 -0.000000 0.017000
v 0.070000 -0.000000 0.023000
v 0.075395 -0.000000 0.023000
v 0.082000 0.001500 0.030000
v 0.078000 0.001500 0.030000
v 0.070000 0.001500 0.018000
v 0.082000 0.002000 0.015911
v 0.070000 0.001500 0.022000
v 0.083012 -0.000000 0.015244
v 0.076000 0.001500 0.022000
v 0.070000 0.001500 0.017000
v 0.075316 -0.000000 0.017000
v 0.083000 0.001500 0.030000
v 0.077000 0.001500 0.030000
v 0.070000 0.001500 0.023000
v 0.075395 0.001500 0.023000
v 0.084000 0.002000 0.018000
v 0.082000 -0.000000 0.015911
v 0.070000 0.002000 0.017000
v 0.070000 0.002000 0.018000
v 0.076988 0.002000 0.015244
v 0.078000 0.002000 0.030000
v 0.070000 0.002000 0.022000
v 0.076000 0.002000 0.022000
v 0.082000 0.002000 0.030000
v 0.078000 0.002000 0.015911
v 0.083000 0.002000 0.030000
v 0.076000 -0.000000 0.018000
v 0.077000 0.002000 0.030000
v 0.070000 0.002000 0.023000
v 0.075395 0.002000 0.023000
v 0.078000 -0.000000 0.024004
v 0.082000 -0.000000 0.024004
v 0.083000 -0.000000 0.024634
v 0.077000 -0.000000 0.024634
v 0.078000 0.001500 0.024004
v 0.082000 0.001500 0.024004
v 0.077000 0.001500 0.024634
v 0.078000 0.002000 0.024004
v 0.082000 0.002000 0.024004
v 0.077000 0.002000 0.024634
v 0.083000 0.002000 0.024640
v 0.083000 0.001499 0.024636
v 0.090000 -0.000000 0.018000
v 0.090000 -0.000000 0.017000
v 0.090000 0.001500 0.018000
v 0.090000 0.001500 0.017000
v 0.090000 0.002000 0.018000
v 0.090000 0.002000 0.017000
v 0.090000 -0.000000 0.022000
v 0.090000 0.001500 0.022000
v 0.090000 -0.000000 0.023000
v 0.090000 0.001500 0.023000
v 0.090000 0.002000 0.022000
v 0.090000 0.002000 0.023000
v 0.084000 -0.000000 0.022000
v 0.084000 0.001500 0.022000
v 0.084680 -0.000000 0.023000
v 0.084680 0.001500 0.023000
v 0.084000 0.002000 0.022000
v 0.084680 0.002000 0.023000
v 0.075316 0.001500 0.017000
v 0.084684 0.001500 0.017000
v 0.076000 0.001500 0.018000
v 0.078000 0.001500 0.015911
v 0.084000 0.001500 0.018000
v 0.076988 0.001500 0.015244
v 0.076000 0.002000 0.018000
v 0.078000 -0.000000 0.015911
v 0.076988 -0.000000 0.015244
v 0.075316 0.002000 0.017000
v 0.084684 0.002000 0.017000
v 0.083012 0.002000 0.015244
v 0.082000 0.001500 0.015911
v 0.082000 0.001500 0.030000
v 0.078000 0.001500 0.030000
v 0.070000 0.001500 0.018000
v 0.070000 0.001500 0.022000
v 0.076000 0.001500 0.022000
v 0.078000 0.001500 0.024004
v 0.082000 0.001500 0.024004
v 0.090000 0.001500 0.018000
v 0.090000 0.001500 0.022000
v 0.084000 0.001500 0.022000
v 0.076000 0.001500 0.018000
v 0.078000 0.001500 0.015911
v 0.084000 0.001500 0.018000
v 0.082000 0.001500 0.010000
v 0.083012 0.001500 0.010000
v 0.082000 0.002000 0.010000
v 0.083012 -0.000000 0.010000
v 0.082000 -0.000000 0.010000
v 0.076988 0.002000 0.010000
v 0.078000 0.002000 0.010000
v 0.078000 0.001500 0.010000
v 0.076988 0.001500 0.010000
v 0.078000 -0.000000 0.010000
v 0.076988 -0.000000 0.010000
v 0.083012 0.002000 0.010000
v 0.082000 0.001500 0.010000
v 0.078000 0.001500 0.010000
vt 0.063413 0.937500
vt 0.063413 0.937500
vt 0.063413 0.937500
vt 0.063413 0.937500
vt 0.063413 0.937500
vt 0.063413 0.937500
vt 0.063413 0.937500
vt 0.063413 0.937500
vt 0.063413 0.937500
vt 0.063413 0.937500
vt 0.063413 0.937500
vt 0.063413 0.937500
vt 0.063413 0.937500
vt 0.063413 0.937500
vt 0.063413 0.937500
vt 0.063413 0.937500
vt 0.063413 0.937500
vt 0.063413 0.937500
vt 0.063413 0.937500
vt 0.063413 0.937500
vt 0.063413 0.937500
vt 0.063413 0.937500
vt 0.063413 0.937500
vt 0.063413 0.937500
vt 0.063413 0.937500
vt 0.063413 0.937500
vt 0.063413 0.937500
vt 0.063413 0.937500
vt 0.063413 0.937500
vt 0.063413 0.937500
vt 0.063413 0.937500
vt 0.063413 0.937500
vt 0.063413 0.937500
vt 0.063413 0.937500
vt 0.063413 0.937500
vt 0.063413 0.937500
vt 0.063413 0.937500
vt 0.063413 0.937500
vt 0.063413 0.937500
vt 0.063413 0.937500
vt 0.063413 0.937500
vt 0.063413 0.937500
vt 0.063413 0.937500
vt 0.063413 0.937500
vt 0.063413 0.937500
vt 0.063413 0.937500
vt 0.063413 0.937500
vt 0.063413 0.937500
vt 0.000000 0.000000
vt 0.000000 0.000000
vt 0.000000 0.000000
vt 0.000000 0.000000
vt 0.000000 0.000000
vt 0.000000 0.000000
vt 0.063413 0.937500
vt 0.063413 0.937500
vt 0.063413 0.937500
vt 0.063413 0.937500
vt 0.063413 0.937500
vt 0.063413 0.937500
vt 0.063413 0.937500
vt 0.063413 0.937500
vt 0.063413 0.937500
vt 0.063413 0.937500
vt 0.063413 0.937500
vt 0.063413 0.937500
vt 0.000000 0.000000
vt 0.000000 0.000000
vt 0.000000 0.000000
vt 0.000000 0.000000
vt 0.000000 0.000000
vt 0.000000 0.000000
vt 0.063413 0.937500
vt 0.063413 0.937500
vt 0.063413 0.937500
vt 0.063413 0.937500
vt 0.063413 0.937500
vt 0.063413 0.937500
vt 0.063413 0.937500
vt 0.063413 0.937500
vt 0.063413 0.937500
vt 0.063413 0.937500
vt 0.063413 0.937500
vt 0.063413 0.937500
vt 0.063413 0.937500
vt 0.063413 0.937500
vt 0.063413 0.937500
vt 0.063413 0.937500
vt 0.063413 0.937500
vt 0.063413 0.937500
vt 0.063413 0.937500
vt 0.063413 0.937500
vt 0.063413 0.937500
vt 0.063413 0.937500
vt 0.000000 0.000000
vt 0.000000 0.000000
vt 0.000000 0.000000
vt 0.000000 0.000000
vt 0.063413 0.937500
vt 0.063413 0.937500
vt 0.063413 0.937500
vt 0.063413 0.937500
vt 0.399847 0.704758
vt 0.600153 0.704758
vt 0.600153 1.000767
vt 0.399847 1.000767
vt 0.299693 0.600154
vt -0.000767 0.600154
vt -0.000767 0.399847
vt 0.299693 0.399847
vt 0.600153 0.299468
vt 0.399846 0.299469
vt 0.399846 -0.000767
vt 0.600153 -0.000767
vt 0.700307 0.600154
vt 0.700307 0.399847
vt 1.000767 0.399847
vt 1.000767 0.600153
vn 0.0000 -1.0000 0.0000
vn 0.0000 0.0000 1.0000
vn -1.0000 0.0000 0.0000
vn 0.0000 0.0000 -1.0000
vn -0.7136 0.0000 0.7006
vn 0.0000 1.0000 0.0000
vn 0.7079 0.0000 -0.7063
vn 1.0000 0.0000 0.0000
vn 0.6976 -0.0004 0.7165
vn 0.6982 -0.0026 0.7159
vn -0.7079 0.0000 -0.7063
vn -0.7241 0.0000 -0.6897
vn 0.7223 0.0000 0.6916
vn 0.7241 0.0000 -0.6897
vn -0.7223 0.0000 0.6916
usemtl pavement
s off
f 39/1/1 7/2/1 5/3/1 3/4/1
f 44/5/1 1/6/1 2/7/1 43/8/1
f 3/4/1 8/9/1 23/10/1 39/1/1
f 44/5/1 45/11/1 10/12/1 1/6/1
f 7/2/1 14/13/1 13/14/1 5/3/1
f 7/2/1 43/8/1 46/15/1 14/13/1
f 25/16/2 16/17/2 33/18/2 40/19/2
f 48/20/3 15/21/3 36/22/3 51/23/3
f 22/24/3 17/25/3 31/26/3 30/27/3
f 21/28/4 19/29/4 34/30/4 35/31/4
f 49/32/3 25/16/3 40/19/3 52/33/3
f 27/34/5 49/32/5 52/33/5 42/35/5
f 46/15/3 11/36/3 25/16/3 49/32/3
f 14/13/5 46/15/5 49/32/5 27/34/5
f 5/3/3 13/14/3 26/37/3 19/29/3
f 1/6/2 10/12/2 24/38/2 15/21/2
f 23/10/4 8/9/4 22/24/4 73/39/4
f 11/36/2 2/7/2 16/17/2 25/16/2
f 8/9/3 3/4/3 17/25/3 22/24/3
f 13/14/2 14/13/2 27/34/2 26/37/2
f 31/26/6 79/40/6 82/41/6 30/27/6
f 51/23/6 36/22/6 38/42/6 53/43/6
f 35/31/6 34/30/6 41/44/6 42/35/6
f 35/31/6 42/35/6 52/33/6 50/45/6
f 47/46/7 21/28/7 35/31/7 50/45/7
f 73/39/4 22/24/4 30/27/4 82/41/4
f 26/37/2 27/34/2 42/35/2 41/44/2
f 19/29/3 26/37/3 41/44/3 34/30/3
f 17/25/2 75/47/2 79/40/2 31/26/2
f 15/21/2 24/38/2 38/42/2 36/22/2
f 24/38/8 54/48/8 53/43/8 38/42/8
f 16/17/8 47/46/8 50/45/8 33/18/8
f 33/18/6 50/45/6 52/33/6 40/19/6
f 10/12/8 45/11/8 54/48/8 24/38/8
f 2/7/1 11/36/1 46/15/1 43/8/1
f 44/5/1 67/49/1 69/50/1 45/11/1
f 69/50/9 70/51/9 54/48/9 45/11/9
f 70/51/10 72/52/10 53/43/10 54/48/10
f 51/23/11 71/53/11 68/54/11 48/20/11
f 12/55/4 74/56/4 58/57/4 56/58/4
f 4/59/1 12/55/1 56/58/1 55/60/1
f 28/61/2 77/62/2 57/63/2 59/64/2
f 83/65/6 28/61/6 59/64/6 60/66/6
f 74/56/4 83/65/4 60/66/4 58/57/4
f 59/64/8 57/63/8 58/57/8 60/66/8
f 55/60/8 56/58/8 58/57/8 57/63/8
f 62/67/4 68/54/4 71/53/4 65/68/4
f 53/43/6 72/52/6 71/53/6 51/23/6
f 63/69/1 69/50/1 67/49/1 61/70/1
f 64/71/2 70/51/2 69/50/2 63/69/2
f 66/72/2 72/52/2 70/51/2 64/71/2
f 65/68/6 71/53/6 72/52/6 66/72/6
f 66/72/8 64/71/8 62/67/8 65/68/8
f 62/67/2 57/63/2 64/71/2
f 61/70/8 62/67/8 64/71/8 63/69/8
f 23/10/12 73/39/12 78/73/12 81/74/12
f 79/40/13 75/47/13 76/75/13 37/76/13
f 73/39/12 82/41/12 32/77/12 78/73/12
f 82/41/6 79/40/6 37/76/6 32/77/6
f 39/1/1 23/10/1 81/74/1 80/78/1
f 83/65/14 74/56/14 9/79/14 84/80/14
f 74/56/14 12/55/14 20/81/14 9/79/14
f 28/61/6 83/65/6 84/80/6 18/82/6
f 77/62/15 28/61/15 18/82/15 6/83/15
f 12/55/1 4/59/1 29/84/1 20/81/1
f 29/84/1 80/78/1 108/85/1 103/86/1
f 6/83/3 18/82/3 101/87/3 99/88/3
f 18/82/6 84/80/6 110/89/6 101/87/6
f 37/76/8 76/75/8 106/90/8 105/91/8
f 80/78/1 43/8/1 7/2/1 39/1/1
f 43/8/1 80/78/1 29/84/1 44/5/1
f 44/5/1 29/84/1 4/59/1 67/49/1
f 55/60/1 61/92/1 67/49/1 4/59/1
f 78/73/3 32/77/3 104/93/3 107/94/3
f 76/95/6 6/96/6 99/97/6 106/98/6
f 84/80/8 9/79/8 100/99/8 110/89/8
f 9/79/8 20/81/8 102/100/8 100/99/8
f 32/77/6 37/76/6 105/91/6 104/93/6
f 20/81/1 29/84/1 103/86/1 102/100/1
f 81/74/3 78/73/3 107/94/3 109/101/3
f 80/78/1 81/74/1 109/101/1 108/85/1
f 103/86/4 99/97/4 100/99/4 102/100/4
f 101/87/4 110/89/4 100/99/4 99/88/4
f 106/90/4 107/94/4 104/93/4 105/91/4
f 107/94/4 106/90/4 108/85/4 109/101/4
usemtl asphalt_cross_3
f 3/4/3 5/3/3 19/29/3 17/25/3
f 2/7/2 1/6/2 15/21/2 16/17/2
f 55/60/8 57/63/8 62/102/8 61/92/8
f 97/103/6 85/104/6 111/105/6 112/106/6
f 96/107/6 88/108/6 89/109/6 90/110/6
f 92/111/6 91/112/6 87/113/6 86/114/6
f 98/115/6 95/116/6 94/117/6 93/118/6
f 90/110/6 91/112/6 97/103/6 96/107/6
f 95/116/6 98/115/6 85/104/6 92/111/6
f 91/112/6 92/111/6 85/104/6 97/103/6
f 108/85/4 106/98/4 99/97/4 103/86/4
